<svg width="80" height="80" viewBox="0 0 80 80" fill="none" xmlns="http://www.w3.org/2000/svg">
<rect x="1" y="1" width="78" height="78" rx="11" fill="url(#paint0_linear_103_1044)" fill-opacity="0.6"/>
<rect x="1" y="1" width="78" height="78" rx="11" stroke="url(#paint1_linear_103_1044)" stroke-width="2"/>
<g clip-path="url(#clip0_103_1044)">
<path d="M56.634 24.3111C53.5747 22.9074 50.294 21.8732 46.8638 21.2808C46.8013 21.2694 46.7389 21.2979 46.7067 21.3551C46.2848 22.1055 45.8175 23.0845 45.4902 23.854C41.8008 23.3017 38.1304 23.3017 34.5166 23.854C34.1893 23.0674 33.705 22.1055 33.2811 21.3551C33.249 21.2998 33.1866 21.2713 33.1241 21.2808C29.6958 21.8713 26.4151 22.9055 23.3539 24.3111C23.3274 24.3226 23.3047 24.3416 23.2896 24.3664C17.0668 33.6631 15.3621 42.7313 16.1984 51.6871C16.2021 51.7309 16.2267 51.7728 16.2608 51.7995C20.3664 54.8145 24.3434 56.645 28.2466 57.8582C28.309 57.8773 28.3752 57.8544 28.415 57.803C29.3383 56.5421 30.1613 55.2127 30.867 53.8146C30.9086 53.7327 30.8688 53.6356 30.7837 53.6032C29.4783 53.108 28.2352 52.5042 27.0395 51.8185C26.9449 51.7633 26.9373 51.628 27.0243 51.5632C27.2759 51.3747 27.5276 51.1785 27.7679 50.9804C27.8114 50.9443 27.872 50.9366 27.9231 50.9595C35.7786 54.546 44.2831 54.546 52.0459 50.9595C52.097 50.9347 52.1576 50.9424 52.203 50.9785C52.4433 51.1766 52.6949 51.3747 52.9484 51.5632C53.0354 51.628 53.0298 51.7633 52.9352 51.8185C51.7394 52.5175 50.4964 53.108 49.189 53.6013C49.1039 53.6337 49.0661 53.7327 49.1077 53.8146C49.8285 55.2107 50.6515 56.5402 51.5578 57.8011C51.5957 57.8544 51.6637 57.8773 51.7262 57.8582C55.6483 56.645 59.6252 54.8145 63.7309 51.7995C63.7668 51.7728 63.7895 51.7328 63.7933 51.689C64.7942 41.3351 62.117 32.3413 56.6964 24.3683C56.6832 24.3416 56.6605 24.3226 56.634 24.3111ZM32.04 46.234C29.675 46.234 27.7263 44.0627 27.7263 41.3961C27.7263 38.7295 29.6372 36.5582 32.04 36.5582C34.4617 36.5582 36.3916 38.7486 36.3538 41.3961C36.3538 44.0627 34.4428 46.234 32.04 46.234ZM47.9895 46.234C45.6245 46.234 43.6758 44.0627 43.6758 41.3961C43.6758 38.7295 45.5867 36.5582 47.9895 36.5582C50.4113 36.5582 52.3411 38.7486 52.3033 41.3961C52.3033 44.0627 50.4113 46.234 47.9895 46.234Z" fill="#FEFEFE"/>
</g>
<defs>
<linearGradient id="paint0_linear_103_1044" x1="80.0002" y1="3.74775e-05" x2="29.7603" y2="93.667" gradientUnits="userSpaceOnUse">
<stop stop-color="#5A45FE"/>
<stop offset="1" stop-color="#5A45FE" stop-opacity="0"/>
</linearGradient>
<linearGradient id="paint1_linear_103_1044" x1="-6.97675" y1="8.60843e-05" x2="88.3552" y2="1.52542" gradientUnits="userSpaceOnUse">
<stop stop-color="white"/>
<stop offset="1" stop-color="white" stop-opacity="0"/>
</linearGradient>
<clipPath id="clip0_103_1044">
<rect width="48" height="48" fill="white" transform="translate(16 16)"/>
</clipPath>
</defs>
</svg>
