<svg width="80" height="80" viewBox="0 0 80 80" fill="none" xmlns="http://www.w3.org/2000/svg">
<rect x="1" y="1" width="78" height="78" rx="11" fill="url(#paint0_linear_225_2152)" fill-opacity="0.6"/>
<rect x="1" y="1" width="78" height="78" rx="11" stroke="url(#paint1_linear_225_2152)" stroke-width="2"/>
<path d="M40.0015 20C34.5697 20 33.8881 20.0238 31.7547 20.1209C29.6255 20.2184 28.1722 20.5556 26.9005 21.0503C25.5851 21.5613 24.4692 22.2448 23.3575 23.3572C22.245 24.4692 21.5617 25.5853 21.0492 26.9007C20.5533 28.1731 20.2158 29.6273 20.12 31.7562C20.025 33.8902 20 34.5725 20 40.0057C20 45.4389 20.0242 46.1186 20.1208 48.2526C20.2188 50.3823 20.5558 51.8361 21.05 53.1081C21.5613 54.4239 22.2446 55.5401 23.3567 56.652C24.468 57.7649 25.5838 58.45 26.8984 58.961C28.1709 59.4557 29.6247 59.7929 31.7535 59.8904C33.8868 59.9876 34.5681 60.0113 39.9994 60.0113C45.4315 60.0113 46.1111 59.9876 48.2445 59.8904C50.3737 59.7929 51.8287 59.4557 53.1012 58.961C54.4162 58.45 55.5304 57.7649 56.6416 56.652C57.7541 55.5401 58.4375 54.4239 58.95 53.1085C59.4417 51.8361 59.7792 50.3819 59.8792 48.253C59.975 46.1191 60 45.4389 60 40.0057C60 34.5725 59.975 33.8906 59.8792 31.7567C59.7792 29.6269 59.4417 28.1731 58.95 26.9011C58.4375 25.5853 57.7541 24.4692 56.6416 23.3572C55.5291 22.2444 54.4166 21.5609 53.0999 21.0503C51.8249 20.5556 50.3707 20.2184 48.2415 20.1209C46.1082 20.0238 45.429 20 39.9956 20H40.0015ZM38.2073 23.6052C38.7398 23.6044 39.334 23.6052 40.0015 23.6052C45.3415 23.6052 45.9744 23.6244 48.0832 23.7202C50.0332 23.8094 51.0916 24.1353 51.7966 24.4092C52.7299 24.7718 53.3953 25.2052 54.0949 25.9054C54.7949 26.6056 55.2283 27.2725 55.5916 28.2061C55.8654 28.9104 56.1916 29.9691 56.2804 31.9196C56.3762 34.0286 56.397 34.6621 56.397 40.0011C56.397 45.3401 56.3762 45.9736 56.2804 48.0825C56.1912 50.0331 55.8654 51.0917 55.5916 51.7961C55.2291 52.7297 54.7949 53.3944 54.0949 54.0942C53.3949 54.7944 52.7303 55.2279 51.7966 55.5905C51.0924 55.8656 50.0332 56.1907 48.0832 56.2798C45.9749 56.3757 45.3415 56.3965 40.0015 56.3965C34.661 56.3965 34.0281 56.3757 31.9197 56.2798C29.9697 56.1898 28.9113 55.8639 28.2059 55.5901C27.2726 55.2275 26.6059 54.794 25.9059 54.0938C25.2059 53.3936 24.7726 52.7284 24.4092 51.7944C24.1355 51.09 23.8092 50.0314 23.7205 48.0809C23.6246 45.9719 23.6055 45.3384 23.6055 39.9961C23.6055 34.6537 23.6246 34.0236 23.7205 31.9146C23.8096 29.9641 24.1355 28.9054 24.4092 28.2002C24.7717 27.2666 25.2059 26.5998 25.9059 25.8996C26.6059 25.1994 27.2726 24.7659 28.2059 24.4025C28.9109 24.1274 29.9697 23.8023 31.9197 23.7127C33.7647 23.6294 34.4797 23.6044 38.2073 23.6002V23.6052ZM50.6774 26.927C50.2027 26.927 49.7386 27.0678 49.3439 27.3316C48.9492 27.5954 48.6416 27.9704 48.46 28.4091C48.2784 28.8478 48.2309 29.3306 48.3236 29.7963C48.4162 30.262 48.6449 30.6898 48.9806 31.0255C49.3164 31.3612 49.7441 31.5898 50.2097 31.6823C50.6753 31.7748 51.1579 31.7272 51.5964 31.5453C52.035 31.3635 52.4097 31.0557 52.6734 30.6608C52.937 30.2659 53.0776 29.8016 53.0774 29.3268C53.0774 28.0014 52.0024 26.9261 50.6774 26.9261V26.927ZM40.0015 29.7319C34.3293 29.7319 29.7305 34.332 29.7305 40.0057C29.7305 45.6793 34.3293 50.2773 40.0015 50.2773C45.6736 50.2773 50.2712 45.6793 50.2712 40.0057C50.2712 34.332 45.6732 29.7319 40.001 29.7319H40.0015ZM40.0015 33.3371C43.6832 33.3371 46.6682 36.3225 46.6682 40.0057C46.6682 43.6884 43.6832 46.6742 40.0015 46.6742C36.3193 46.6742 33.3347 43.6884 33.3347 40.0057C33.3347 36.3225 36.3193 33.3371 40.0015 33.3371Z" fill="#FEFEFE"/>
<defs>
<linearGradient id="paint0_linear_225_2152" x1="0" y1="0" x2="87.889" y2="0.34675" gradientUnits="userSpaceOnUse">
<stop stop-color="#5A45FE"/>
<stop offset="1" stop-color="#5A45FE" stop-opacity="0"/>
</linearGradient>
<linearGradient id="paint1_linear_225_2152" x1="-6.97675" y1="8.60843e-05" x2="88.3552" y2="1.52542" gradientUnits="userSpaceOnUse">
<stop stop-color="white"/>
<stop offset="1" stop-color="white" stop-opacity="0"/>
</linearGradient>
</defs>
</svg>
